<?xml version="1.0" encoding="utf-8"?>
<!-- Generator: Adobe Illustrator 14.0.0, SVG Export Plug-In . SVG Version: 6.00 Build 43363)  -->
<!DOCTYPE svg PUBLIC "-//W3C//DTD SVG 1.1//EN" "http://www.w3.org/Graphics/SVG/1.1/DTD/svg11.dtd">
<svg version="1.1" id="Calque_1" xmlns="http://www.w3.org/2000/svg" xmlns:xlink="http://www.w3.org/1999/xlink" x="0px" y="0px"
	 width="86.581px" height="87.583px" viewBox="0 0 86.581 87.583" enable-background="new 0 0 86.581 87.583" xml:space="preserve">
<circle fill="#C2C2C2" cx="43.291" cy="43.29" r="43.291"/>
<g>
	<defs>
		<circle id="SVGID_1_" cx="43.291" cy="43.29" r="43.291"/>
	</defs>
	<clipPath id="SVGID_2_">
		<use xlink:href="#SVGID_1_"  overflow="visible"/>
	</clipPath>
	<g clip-path="url(#SVGID_2_)">
		<path fill="none" stroke="#0087FF" d="M44.102,92.484c-14.235,0-21.478-6.645-21.478-6.645s-11.551,0.163-12.021-4.112
			C7.915,57.21,33.88,51.69,33.88,51.69s1.926,5.466,10.222,5.36h0.003c8.296,0.105,10.188-5.266,10.188-5.266
			s26,5.425,23.312,29.942c-0.47,4.275-12.021,4.112-12.021,4.112s-7.24,6.645-21.479,6.645H44.102z"/>
		<path fill="#FFFFFF" stroke="#FFFFFF" d="M44.105,93.05h-0.003c-13.272,0-20.487-5.619-21.689-6.642
			c-2.843-0.005-11.905-0.354-12.374-4.619C7.326,57.048,33.498,51.192,33.763,51.135l0.483-0.102l0.169,0.466
			c0.074,0.205,1.888,4.986,9.453,4.986h0.228h0.25c7.561,0,9.341-4.691,9.412-4.891l0.167-0.464l0.484,0.099
			c0.265,0.056,26.475,5.816,23.762,30.56c-0.47,4.263-9.53,4.614-12.374,4.619C64.593,87.431,57.379,93.05,44.105,93.05
			L44.105,93.05z M22.841,85.269l0.166,0.151c0.071,0.064,7.272,6.496,21.095,6.496h0.003c13.824,0,21.024-6.432,21.094-6.496
			l0.166-0.15l0.388,0.003c4.045,0,10.976-0.76,11.29-3.607c2.41-21.982-19.045-28.357-22.425-29.221
			c-0.685,1.367-3.23,5.175-10.272,5.175l-0.247-0.002l-0.231,0.002c-7.062,0-9.627-3.892-10.314-5.271
			c-3.498,0.863-24.827,7.063-22.386,29.316c0.313,2.848,7.244,3.607,11.288,3.607L22.841,85.269L22.841,85.269z"/>
		<path fill="#FFFFFF" stroke="#FFFFFF" stroke-width="2" d="M43.966,51.812c-2.706,0-5.204-1.154-7.423-3.432
			c-5.411-5.555-7.541-15.989-7.434-20.087c0.168-6.363,3.513-17.176,14.988-17.338l0.216-0.001
			c11.359,0,15.035,12.545,15.035,18.62c0,8.76-6.076,22.094-15.235,22.237L43.966,51.812L43.966,51.812z M44.313,12.087l-0.2,0.001
			C33.498,12.24,30.4,22.365,30.244,28.325c-0.109,4.18,2.173,14.194,7.112,19.263c1.997,2.052,4.222,3.091,6.61,3.091h0.13
			c8.19-0.128,14.119-12.695,14.119-21.104C58.215,23.87,54.816,12.087,44.313,12.087L44.313,12.087z"/>
		<path fill="#FFFFFF" d="M44.229,64.513c-7.57,0-13.991-3.891-17.179-10.411l2.038-0.995c2.839,5.808,8.357,9.14,15.141,9.14
			c6.366,0,12.188-3.43,15.193-8.947l1.991,1.087C58.012,60.631,51.428,64.513,44.229,64.513L44.229,64.513z"/>
		<path fill="#FFFFFF" d="M73.583,85.583l-1.13-0.119c0.119-1.104,0.178-2.229,0.178-3.347c0-12.124-5.729-21.294-14.951-23.928
			l0.311-1.09c9.731,2.777,15.775,12.365,15.775,25.018C73.766,83.273,73.702,84.44,73.583,85.583L73.583,85.583z"/>
		<path fill="#FFFFFF" d="M14.9,85.583c-0.123-1.137-0.184-2.304-0.184-3.466c0-12.559,5.985-22.069,15.62-24.82l0.312,1.09
			C21.52,60.994,15.85,70.086,15.85,82.117c0,1.121,0.06,2.248,0.178,3.346L14.9,85.583L14.9,85.583z"/>
		<path fill="#FFFFFF" d="M30.337,57.926c-0.036-1.167-0.921-2.054-0.921-2.054l-1.843-2.092l-3.933,2.34l-5.528,4.146l-3.65,4.43
			l-2.658,4.747l-0.992,4.891l-0.284,6.307l1.205,2.659l2.268,1.17l1.275,0.247v-2.303l0.284-4.395l0.497-3.65l1.275-3.578
			l1.347-3.331l2.374-3.259l2.303-2.445l1.949-1.524l2.516-1.169L30.337,57.926z"/>
		<path fill="#FFFFFF" d="M58.153,57.926c0.035-1.167,0.923-2.054,0.923-2.054l1.843-2.092l3.931,2.34l5.529,4.146l3.65,4.43
			l2.659,4.747l0.991,4.891l0.283,6.307l-1.203,2.659l-2.269,1.17l-1.275,0.247v-2.303l-0.285-4.395l-0.496-3.65l-1.276-3.578
			l-1.348-3.331L67.438,64.2l-2.302-2.445l-1.951-1.524l-2.516-1.169L58.153,57.926z"/>
	</g>
</g>
</svg>
